<svg id="Слой_1" data-name="Слой 1" xmlns="http://www.w3.org/2000/svg" viewBox="0 0 1001 355"><defs><style>.cls-1{fill:#fff;}.cls-1,.cls-2{stroke:#000;stroke-miterlimit:10;}.cls-2{fill:none;}</style></defs><title>сопли</title><path class="cls-1" d="M1000.5,265.5v245c-71,6,16-174-80-175-98-1-8.93,106-62,109s21-107-72-104c-98.27,3.17-7,160-65,160-60,0,47-159-85-155-64,1.94-7,91-53,93-35.19,1.53,27-103-46-100-74.94,3.08-4,105-49,105-50.16,0,9-108-58-106-55,1.64-5,114-53,117-46,2.88,11-125-59-123-72,2.06,9,168-49,169-62,1.07-13-166-77-163-86.93,4.07,30,226-52,226-89,0,16-228-65-223-109.83,6.78,21,279-75,279v-354Z" transform="translate(0 -265)"/><line class="cls-2" x1="0.5" y1="354.5" x2="0.5" y2="0.5"/><line class="cls-2" x1="1000.5" y1="245.5" x2="1000.5" y2="0.5"/></svg>