<?xml version="1.0" standalone="no"?>
<!DOCTYPE svg PUBLIC "-//W3C//DTD SVG 20010904//EN"
 "http://www.w3.org/TR/2001/REC-SVG-20010904/DTD/svg10.dtd">
<svg version="1.0" xmlns="http://www.w3.org/2000/svg"
 width="654.000000pt" height="654.000000pt" viewBox="0 0 654.000000 654.000000"
 preserveAspectRatio="xMidYMid meet">
<metadata>
Created by potrace 1.11, written by Peter Selinger 2001-2013
</metadata>
<g transform="translate(0.000000,654.000000) scale(0.100000,-0.100000)"
fill="#000000" stroke="none">
<path d="M2974 6519 c-592 -109 -1084 -557 -1247 -1134 -14 -49 -28 -106 -31
-125 -3 -19 -8 -46 -11 -60 -18 -88 -24 -286 -12 -415 22 -228 85 -424 208
-645 37 -66 84 -196 212 -585 91 -275 316 -957 501 -1515 185 -558 412 -1244
504 -1525 93 -280 173 -509 178 -508 5 1 35 82 67 180 31 98 84 259 116 358
33 99 116 356 186 570 70 215 135 415 145 445 10 30 71 217 135 415 64 198
129 398 145 445 15 47 85 261 155 475 69 215 139 428 155 475 15 47 72 220
125 385 72 223 109 322 144 385 95 170 163 351 187 500 2 14 7 35 9 48 21 89
24 350 6 472 -33 230 -101 422 -217 613 -216 356 -567 619 -957 717 -166 42
-224 48 -422 48 -132 0 -207 -5 -281 -19z m451 -63 c33 -4 71 -9 85 -11 14 -3
36 -6 50 -9 101 -17 261 -72 375 -128 321 -161 573 -423 716 -745 31 -68 32
-73 19 -119 -30 -105 -145 -231 -233 -255 -24 -6 -65 -8 -95 -5 -100 12 -163
57 -226 163 -54 91 -71 113 -110 138 -35 23 -50 27 -99 26 -104 -2 -178 -83
-217 -238 -10 -42 -12 -43 -51 -43 -50 0 -138 44 -200 101 -131 119 -209 161
-298 161 -100 0 -185 -58 -285 -192 -23 -30 -45 -60 -51 -66 -5 -6 -23 -27
-40 -48 -32 -40 -92 -79 -138 -90 -46 -11 -104 13 -148 62 -40 43 -100 157
-115 217 -10 45 -22 55 -57 49 -76 -13 -102 -29 -188 -113 -122 -117 -166
-139 -222 -110 -37 20 -77 71 -88 112 -9 35 -7 51 20 126 193 554 689 952
1266 1016 33 4 61 7 62 8 4 5 214 -1 268 -7z m542 -1041 c12 -9 45 -53 73
-100 76 -126 140 -179 249 -205 154 -37 298 32 402 192 l37 58 11 -47 c109
-430 14 -912 -246 -1258 -310 -412 -759 -632 -1263 -620 -163 4 -173 5 -310
36 -424 98 -804 392 -1004 779 -92 179 -141 341 -163 545 -7 67 -6 256 2 320
4 33 8 66 8 73 1 18 9 15 37 -15 33 -35 96 -63 143 -63 61 0 122 35 210 121
44 44 94 87 109 95 27 14 29 14 38 -13 28 -75 36 -93 77 -154 82 -126 178
-169 298 -134 46 13 69 28 119 78 35 34 85 91 112 127 104 139 162 183 239
182 58 -2 104 -26 190 -101 137 -119 217 -161 307 -161 57 0 118 25 119 49 4
91 50 188 104 219 28 16 77 15 102 -3z m465 -1621 c-23 -70 -34 -84 -128 -182
l-101 -106 -34 39 c-19 21 -34 41 -34 45 0 4 45 41 100 83 55 41 127 103 160
136 33 34 60 61 61 61 2 0 -9 -34 -24 -76z m-2062 -404 c0 -9 -89 -94 -93 -89
-3 2 -24 63 -47 134 -24 72 -45 137 -48 145 -3 8 38 -30 91 -85 54 -54 97
-102 97 -105z m138 145 c1 -1 -4 -7 -11 -13 -10 -9 -22 -2 -53 30 l-39 41 50
-28 c28 -16 51 -29 53 -30z m1525 -83 l58 -59 -158 -162 -158 -162 -144 145
c-80 80 -138 146 -130 147 8 0 21 2 29 4 8 2 29 6 45 9 62 12 188 47 248 70
45 18 144 60 152 66 0 0 27 -26 58 -58z m-1243 -35 c106 -34 268 -65 348 -66
35 -1 41 -4 35 -16 -5 -8 -65 -72 -133 -141 l-125 -126 -158 163 -157 163 31
32 c26 27 35 31 58 24 14 -5 60 -20 101 -33z m1454 -197 c-1 -3 -28 -86 -60
-185 -32 -99 -58 -182 -59 -185 -4 -20 -29 -86 -34 -92 -4 -5 -51 37 -106 92
-54 55 -96 102 -94 104 2 3 73 76 158 164 l154 161 21 -27 c12 -15 20 -29 20
-32z m-1598 -106 c82 -85 149 -159 149 -164 0 -11 -296 -312 -302 -307 -6 6
-153 458 -153 470 0 12 138 157 150 157 3 0 73 -70 156 -156z m786 74 c43 -46
113 -117 154 -159 l76 -77 -158 -162 -159 -162 -158 162 -159 163 90 91 c50
50 119 121 154 158 35 37 67 67 72 67 5 1 44 -36 88 -81z m-260 -615 c53 -53
59 -63 47 -76 -8 -8 -79 -81 -159 -162 l-145 -147 -158 163 -158 163 105 105
c58 58 129 131 158 162 l53 56 98 -101 c54 -56 126 -129 159 -163z m856 -4 c2
-5 -9 -46 -24 -91 -26 -79 -31 -87 -128 -186 l-101 -103 -117 118 c-64 65
-135 138 -158 162 l-41 44 79 81 c44 45 115 117 158 162 l78 80 125 -129 c69
-71 127 -133 129 -138z m-622 -236 c31 -32 101 -104 156 -160 l101 -101 -29
-30 c-16 -16 -87 -89 -159 -162 l-129 -132 -159 162 -159 162 95 97 c53 53
122 124 154 158 32 34 62 62 66 62 5 1 33 -25 63 -56z m-608 -261 c1 -4 -18
-27 -42 -51 l-44 -43 -42 129 c-24 70 -45 134 -48 141 -2 7 36 -28 84 -78 49
-50 90 -94 92 -98z m277 -279 c91 -94 150 -163 147 -170 -13 -23 -292 -301
-296 -295 -2 4 -38 112 -80 241 l-77 234 48 50 c66 69 95 97 101 97 2 0 73
-71 157 -157z m722 135 l20 -23 -74 -230 c-41 -126 -78 -233 -82 -238 -4 -4
-52 38 -106 94 l-98 101 101 101 c56 56 125 128 154 160 29 31 56 57 59 57 3
0 15 -10 26 -22z m-325 -544 c68 -69 124 -130 125 -137 2 -7 -9 -49 -25 -94
-24 -74 -34 -89 -103 -160 -42 -43 -88 -88 -101 -101 l-25 -23 -129 132 c-71
73 -142 145 -158 161 -29 28 -29 29 -10 47 10 10 82 82 158 160 76 77 140 141
142 141 2 0 59 -56 126 -126z m-280 -676 c-23 -23 -43 -40 -45 -38 -2 3 -23
61 -46 130 l-41 125 87 -88 87 -87 -42 -42z m161 -226 c-19 -59 -42 -131 -50
-159 -9 -29 -19 -53 -22 -53 -3 0 -22 49 -42 109 l-36 109 70 71 70 71 22 -20
22 -21 -34 -107z"/>
</g>
</svg>
